<svg height="512" viewBox="0 0 58 58" width="512" xmlns="http://www.w3.org/2000/svg"><g id="002---Cutting-Ribbon" fill="none"><path id="Shape" d="m46.8 43.42c-3 2.21-5.85 4-7 6.22-1.0366074 2.3411907-1.610485 4.8608192-1.69 7.42-.0238999.3467284-.2261128.6561809-.5340644.8172947-.3079516.1611137-.6774703.1507791-.9759356-.0272947l-3-1.84c-.3094011-.1786328-.6905989-.1786328-1 0l-2.91 1.73c-.3199916.1910085-.7196494.1882359-1.0369601-.0071939-.3173106-.1954298-.4996263-.5510911-.4730399-.9228061.0923595-4.1369164 1.0531241-8.2082415 2.82-11.95 1.4350654-2.5031309 3.3763947-4.6794633 5.7-6.39z" fill="#df4d60"/><path id="Shape" d="m19.42 29h4.58l1.94-3.58-4.51-2.33c-.2417471-.121529-.4239292-.3358338-.5049568-.5939917-.0810277-.2581578-.0539842-.5381319.0749568-.7760083 3.33-5.95-2-12.72-10-12.72-6.08 0-11 4-11 9s4.92 9 11 9c2.92 0 3.41-.75 4.12-.36zm-8.42-6c-3.79 0-7-2.29-7-5s3.21-5 7-5 7 2.29 7 5-3.21 5-7 5z" fill="#3b97d3"/><path id="Shape" d="m46.8 14.58c6.26-2.16 9.86-2.09 10.79 0l.41.91-6.07 3.65z" fill="#2980ba"/><path id="Shape" d="m38.25 18.67-23.13 12.69c-.2271838.1208915-.4922285.1495449-.74.08-6.79-1.86-14.38 2.26-14.38 8.56 0 5 4.92 9 11 9 8 0 13.3-6.79 10-12.72-.130404-.2354123-.1604191-.5134486-.0832615-.771268.0771577-.2578195.2549747-.4736578.4932615-.598732l4.51-2.33 5.08-.58 1.87-3 9.69-5zm-27.25 26.33c-3.79 0-7-2.29-7-5s3.21-5 7-5c2.1738071-.0607849 4.2786884.7660038 5.83 2.29 3.17 3.35-.5 7.71-5.83 7.71z" fill="#2980ba"/><path id="Shape" d="m42.56 34.51c1.8-1.53 3.52-3.84 3.45-5.17 0-.23 0-.45 0-.68.15-2.72-6.75-7.09-9.34-9.13-2.3078593-1.7190105-4.2377866-3.8940079-5.67-6.39-1.8047943-3.75024073-2.7964706-7.83962752-2.91-12-.0225834-.36995738.161312-.72206071.4778363-.91490996.3165243-.19284925.7137528-.19480815 1.0321637-.00509004l2.88 1.78c.3094011.17863279.6905989.17863279 1 0l3-1.84c.2984653-.17807382.667984-.18840841.9759356-.02729467s.5101645.47056624.5340644.81729467c.079515 2.55918081.6533926 5.07880925 1.69 7.42 1.25 2.28 4.19 4.11 7 6.22 4.98 3.58 9.56 8.41 9.32 14.41-.0002239 3.8421942-1.4583713 7.5411711-4.08 10.35z" fill="#ff5364"/><path id="Shape" d="m32.87 29 25.13 13.5-.41.91c-1.12 2.52-6.52 2.12-14.73-1.55l-16.92-9.28z" fill="#3b97d3"/><circle id="Oval" cx="26" cy="29" fill="#d1d4d1" r="1"/></g></svg>