<svg id="Layer_1" enable-background="new 0 0 128 128" height="512" viewBox="0 0 128 128" width="512" xmlns="http://www.w3.org/2000/svg"><g><path d="m120.28 74.502-8.234-7.154v-51.81c0-1.654-1.346-3-3-3h-49.909c-.266 0-.52.105-.707.293l-26.795 26.796c-.217.187-.348.462-.348.758v13.307c-11.914.526-21.444 10.379-21.444 22.42 0 6.726 3.065 13.607 8.2 18.406 2.725 2.547 4.802 5.676 6.183 9.297v7.746c0 1.879 1.307 3.449 3.058 3.876v.346c0 2.029 1.65 3.679 3.679 3.679h78.084c1.654 0 3-1.346 3-3v-34.88l.536.617c.989 1.139 2.422 1.822 3.929 1.875.063.002.126.003.188.003 1.44 0 2.839-.577 3.86-1.599 1.066-1.066 1.647-2.542 1.595-4.049-.054-1.506-.737-2.938-1.875-3.927z" fill="#e6e7e8"/><g><g><path d="m28.289 36.388 26.849-26.849h49.907c1.105 0 2 .895 2 2v100.922c0 1.105-.895 2-2 2h-76.758v-78.075z" fill="#ffd7e5"/><path d="m55.136 9.539.002.002v24.847c0 1.105-.895 2-2 2h-24.851z" fill="#fa759e"/></g><g><g><path d="m32.35 110.561h-8.125c-1.657 0-3-1.343-3-3v-7.94h14.125v7.94c0 1.656-1.344 3-3 3z" fill="#0089ef"/><path d="m29.612 114.461h-2.65c-1.48 0-2.679-1.199-2.679-2.679v-1.222h8.008v1.222c0 1.48-1.199 2.679-2.679 2.679z" fill="#6dc9f7"/><path d="m28.287 50.667c-11.844 0-21.445 9.601-21.445 21.445 0 6.699 3.071 13.178 7.883 17.675 2.94 2.749 5.116 6.134 6.5 9.833h14.124c1.384-3.699 3.56-7.085 6.5-9.833 4.811-4.497 7.883-10.977 7.883-17.675 0-11.844-9.601-21.445-21.445-21.445z" fill="#d4fbff"/><path d="m28.287 53.667c11.385 0 20.672 8.879 21.376 20.086.041-.545.069-1.092.069-1.641 0-11.844-9.601-21.445-21.445-21.445s-21.445 9.601-21.445 21.445c0 .549.028 1.096.069 1.641.704-11.207 9.991-20.086 21.376-20.086z" fill="#fff"/></g><path d="m27.784 61.5h7.079l-8.143 13.244h12.017l-16.151 16.402 6.03-12.492h-10.778z" fill="#fa759e"/></g><g><path d="m115.852 77.772c-1.827 1.827-4.82 1.722-6.515-.228l-13.305-15.315 4.277-4.277 15.315 13.305c1.95 1.695 2.055 4.688.228 6.515z" fill="#0089ef"/><path d="m100.333 53.464c-.307-.307-.671-.516-1.056-.647-.951 1.714-2.136 3.333-3.592 4.788-1.455 1.455-3.074 2.641-4.788 3.592.131.385.34.749.647 1.056l.291.291c1.072 1.072 2.81 1.072 3.881 0l4.908-4.908c1.072-1.072 1.072-2.81 0-3.881z" fill="#ffd7e5"/><circle cx="80.483" cy="42.403" fill="#6dc9f7" r="21.5"/><circle cx="80.483" cy="42.403" fill="#d4fbff" r="16.368"/><g fill="#3a2c60"><path d="m51.545 83.958c0 .552.447 1 1 1h42.911c.553 0 1-.448 1-1s-.447-1-1-1h-42.911c-.553 0-1 .448-1 1z"/><path d="m95.456 74.958c.553 0 1-.448 1-1s-.447-1-1-1h-40.911c-.553 0-1 .448-1 1s.447 1 1 1z"/><path d="m43.545 93.958c0 .552.447 1 1 1h50.911c.553 0 1-.448 1-1s-.447-1-1-1h-50.911c-.553 0-1 .448-1 1z"/><path d="m40.545 103.958c0 .552.447 1 1 1h53.911c.553 0 1-.448 1-1s-.447-1-1-1h-53.911c-.553 0-1 .448-1 1z"/><path d="m89.407 113.461h-8.25c-.553 0-1 .448-1 1s.447 1 1 1h8.25c.553 0 1-.448 1-1s-.447-1-1-1z"/><path d="m26.919 60.999-9.946 17.154c-.18.309-.18.691-.001 1 .179.31.509.501.866.501h9.185l-5.337 11.057c-.213.44-.075.97.324 1.252.174.123.376.183.576.183.26 0 .519-.102.713-.298l16.151-16.403c.282-.287.365-.716.21-1.088-.156-.372-.52-.614-.923-.614h-10.227l7.205-11.72c.19-.309.198-.696.021-1.012s-.511-.512-.873-.512h-7.079c-.356.001-.686.191-.865.5zm6.155 1.501-7.205 11.72c-.19.309-.198.696-.021 1.012s.511.512.873.512h9.628l-10.236 10.394 3.402-7.049c.149-.31.13-.675-.054-.966-.183-.292-.503-.468-.847-.468h-9.042l8.788-15.155z"/><path d="m116.28 70.502-8.235-7.154v-51.809c0-1.654-1.346-3-3-3h-49.907c-.266 0-.52.105-.707.293l-26.796 26.796c-.217.187-.348.462-.348.758v13.307c-11.913.525-21.444 10.378-21.444 22.419 0 6.726 3.065 13.607 8.2 18.406 2.724 2.547 4.801 5.675 6.182 9.295v7.748c0 1.88 1.308 3.45 3.059 3.876v.345c0 2.028 1.65 3.679 3.679 3.679h49.195c.553 0 1-.448 1-1s-.447-1-1-1h-43.29c.262-.506.424-1.071.424-1.679v-.346c1.75-.427 3.058-1.997 3.058-3.876v-7.746c1.381-3.621 3.458-6.75 6.183-9.297 5.135-4.799 8.2-11.68 8.2-18.406 0-12.041-9.532-21.894-21.445-22.419v-12.304h23.851c1.654 0 3-1.346 3-3v-23.849h48.907c.552 0 1 .449 1 1v50.071l-4.316-3.75c.45-.629.7-1.376.7-2.165 0-1-.391-1.94-1.097-2.647l-.292-.292c-.129-.129-.278-.23-.423-.334 1.535-3.077 2.366-6.481 2.366-10.02 0-6.01-2.341-11.66-6.591-15.91s-9.9-6.59-15.909-6.59c-6.01 0-11.66 2.34-15.91 6.59s-6.59 9.9-6.59 15.91 2.34 11.661 6.59 15.91c4.387 4.386 10.147 6.579 15.909 6.579 3.436 0 6.867-.798 10.011-2.359.107.146.211.294.343.427l.291.291c.73.73 1.688 1.095 2.647 1.095.761 0 1.517-.24 2.164-.699l10.106 11.633v37.182c0 .551-.448 1-1 1h-10.888c-.553 0-1 .448-1 1s.447 1 1 1h10.888c1.654 0 3-1.346 3-3v-34.88l.537.618c.989 1.139 2.422 1.822 3.929 1.875.063.002.126.003.188.003 1.441 0 2.839-.577 3.86-1.598 1.066-1.066 1.647-2.542 1.595-4.048-.053-1.508-.736-2.94-1.874-3.929zm-81.931 33.48h-12.125v-3.361h12.125zm-9.066 7.8v-.222h6.009v.222c0 .926-.754 1.679-1.68 1.679h-2.65c-.926 0-1.679-.753-1.679-1.679zm7.066-2.221h-.058-8.009-.059c-1.103 0-2-.897-2-2v-1.579h12.125v1.579c.001 1.103-.896 2-1.999 2zm16.383-37.449c0 6.183-2.828 12.517-7.565 16.945-2.828 2.644-5.014 5.858-6.502 9.564h-12.755c-1.488-3.706-3.674-6.92-6.502-9.564-4.737-4.428-7.565-10.762-7.565-16.945 0-11.273 9.171-20.445 20.444-20.445s20.445 9.171 20.445 20.445zm4.406-36.724h-22.435l23.435-23.435v22.435c0 .551-.449 1-1 1zm12.849 21.511c-3.872-3.872-6.004-9.02-6.004-14.496s2.132-10.624 6.004-14.496c3.996-3.997 9.246-5.995 14.496-5.995 5.249 0 10.499 1.998 14.495 5.995 3.872 3.872 6.005 9.02 6.005 14.496s-2.133 10.624-6.005 14.496c-7.993 7.992-20.998 7.993-28.991 0zm26.555 4.938-.286-.286c1.469-.903 2.865-1.968 4.136-3.239 1.26-1.26 2.329-2.654 3.242-4.132l.282.282c.33.33.512.768.512 1.233s-.182.904-.512 1.233l-4.907 4.908c-.678.68-1.786.681-2.467.001zm22.603 15.228c-.686.686-1.604 1.046-2.564 1.01-.97-.034-1.854-.456-2.489-1.188l-12.694-14.611 1.479-1.479 1.479-1.479 14.611 12.694c.732.636 1.153 1.52 1.188 2.489.034.968-.324 1.879-1.01 2.564z"/><path d="m92.764 30.122c-6.772-6.772-17.791-6.771-24.562 0s-6.771 17.79 0 24.562c3.28 3.28 7.642 5.087 12.281 5.087s9-1.807 12.28-5.087c6.772-6.772 6.772-17.79.001-24.562zm-1.415 23.148c-2.902 2.902-6.762 4.501-10.866 4.501-4.105 0-7.965-1.599-10.867-4.501-5.991-5.992-5.991-15.742 0-21.733 2.996-2.996 6.932-4.494 10.867-4.494s7.87 1.498 10.866 4.494c5.992 5.991 5.992 15.741 0 21.733z"/></g></g></g></g></svg>