<?xml version="1.0" encoding="iso-8859-1"?>
<!-- Generator: Adobe Illustrator 19.0.0, SVG Export Plug-In . SVG Version: 6.00 Build 0)  -->
<svg version="1.1" id="Capa_1" xmlns="http://www.w3.org/2000/svg" xmlns:xlink="http://www.w3.org/1999/xlink" x="0px" y="0px"
	 viewBox="0 0 512 512" style="enable-background:new 0 0 512 512;" xml:space="preserve">
<path style="fill:#707487;" d="M255.051,0c-39.073,0-70.746,31.674-70.746,70.747v28.606c4.728-4.383,11.455-6.765,18.021-5.888
	V89.94c0-2.802,2.393-5.016,5.167-4.806c27.353,1.965,55.19-6.727,76.237-20.476c1.965-1.284,4.567-0.965,6.164,0.751
	c17.994,19.342,17.886,18.593,17.886,21.119v6.923c7.197-1.079,13.582,1.145,18.018,5.27V70.747C325.797,31.674,294.125,0,255.051,0
	z"/>
<path style="fill:#5B5D6E;" d="M206.552,70.747c0-35.288,25.836-64.533,59.623-69.869C262.549,0.305,258.837,0,255.051,0
	c-39.073,0-70.746,31.674-70.746,70.747v28.606c4.728-4.383,11.455-6.765,18.021-5.888V89.94c0-2.479,1.874-4.489,4.226-4.777
	L206.552,70.747L206.552,70.747z"/>
<path style="fill:#F0A479;" d="M307.685,90.888v38.906c0,0.422-0.022,0.838-0.032,1.258c13.768,2.085,24.551-7.863,24.551-20.081
	C332.203,98.73,321.411,88.831,307.685,90.888z"/>
<path style="fill:#E59770;" d="M325.829,96.229c-4.455-4.174-10.889-6.429-18.145-5.341v38.906c0,0.422-0.022,0.838-0.032,1.258
	c7.277,1.102,13.719-1.159,18.177-5.34V96.229z"/>
<path style="fill:#F0A479;" d="M202.483,129.841v-38.99c-12.017-1.605-24.582,7.618-24.582,20.12
	c0,12.232,10.786,22.224,24.612,20.131C202.504,130.682,202.483,130.263,202.483,129.841z"/>
<path style="fill:#E59770;" d="M202.483,123.792c-2.881-3.524-4.564-7.996-4.564-12.82c0-4.663,1.749-8.868,4.564-12.227v-7.893
	c-12.017-1.605-24.582,7.618-24.582,20.12c0,12.232,10.786,22.224,24.612,20.131c-0.01-0.421-0.031-0.84-0.031-1.261v-6.05H202.483z
	"/>
<path style="fill:#F0A479;" d="M255.805,179.211c-11.43,0-21.474-3.138-29.689-8.387v28.984l29.562,36.49l29.562-36.49v-29.767
	C276.865,175.818,266.725,179.211,255.805,179.211z"/>
<path style="fill:#E59770;" d="M248.113,178.714c-8.278-1.073-15.68-3.854-21.997-7.89v28.984l21.997,27.152V178.714z"/>
<path style="fill:#E4EAF8;" d="M363.444,227.611l-78.205-30.287l-29.562,36.49l-29.562-36.49l-78.123,30.287
	c0,0-28.925,11.891-28.925,44.865c0,29.836,0,105.255,0,129.358c0,5.323,4.316,9.638,9.638,9.638c4.056,0,249.905,0,254.024,0
	c5.323,0,9.638-4.316,9.638-9.638c0-24.103,0-99.522,0-129.358C392.368,239.502,363.444,227.611,363.444,227.611z"/>
<path style="fill:#D8DCE5;" d="M141.065,401.834c0-24.103,0-110.521,0-140.357c0-19.551,10.169-31.689,18.448-38.332l-11.52,4.466
	c0,0-28.925,11.891-28.925,44.865c0,29.836,0,105.255,0,129.358c0,5.323,4.316,9.638,9.639,9.638c0.714,0,8.931,0,21.997,0
	C145.381,411.473,141.065,407.157,141.065,401.834z"/>
<path style="fill:#F0A479;" d="M289.894,62.925c-1.597-1.716-4.199-2.035-6.164-0.751c-21.047,13.749-48.884,22.441-76.237,20.476
	c-2.774-0.21-5.168,2.003-5.168,4.806v42.265c0,27.164,21.284,51.974,53.479,51.974c28.659,0,51.975-23.316,51.975-51.974V84.044
	C307.779,81.518,307.888,82.267,289.894,62.925z"/>
<path style="fill:#E59770;" d="M224.359,129.721V82.553c-5.601,0.448-11.243,0.501-16.866,0.097
	c-2.774-0.21-5.167,2.003-5.167,4.806v42.265c0,27.164,21.284,51.974,53.479,51.974c3.513,0,6.945-0.355,10.265-1.023
	C242.31,175.893,224.359,154.866,224.359,129.721z"/>
<g>
	<path style="fill:#D8DCE5;" d="M291.371,252.563l22.106-44.303l-28.238-10.936l-29.562,36.49l28.822,20.469
		C286.832,255.94,290.092,255.124,291.371,252.563z"/>
	<path style="fill:#D8DCE5;" d="M220.025,252.563l-22.106-44.303l28.238-10.936l29.562,36.49l-28.822,20.469
		C224.564,255.94,221.303,255.124,220.025,252.563z"/>
</g>
<path style="fill:#FF5050;" d="M285.743,375.682L266.77,263.403h-11.054h-0.036h-11.054l-18.973,112.279
	c-0.199,1.447,0.225,2.915,1.13,3.912l0,0l0,0l26.194,28.863c1.459,1.608,3.984,1.608,5.443,0l26.194-28.863l0,0l0,0
	C285.518,378.598,285.941,377.129,285.743,375.682z"/>
<g>
	<path style="fill:#ED3A3A;" d="M248.816,379.595c-0.905-0.997-1.329-2.466-1.13-3.912l18.973-112.279h-10.944h-0.036h-11.054
		l-18.973,112.279c-0.2,1.447,0.225,2.915,1.129,3.912l26.194,28.863c1.459,1.608,3.984,1.608,5.443,0l8.296-9.141L248.816,379.595z
		"/>
	<polygon style="fill:#ED3A3A;" points="255.716,233.839 255.716,233.814 255.698,233.826 255.68,233.814 255.68,233.839 
		234.717,248.727 244.626,263.64 255.68,263.64 255.716,263.64 266.77,263.64 276.678,248.727 	"/>
</g>
<path style="fill:#DB2A2A;" d="M266.697,241.638l-10.981-7.799v-0.025l-0.018,0.013l-0.018-0.013v0.025l-20.963,14.888l9.909,14.913
	h11.054h0.036h10.908l-8.506-12.802c-0.782-1.176-0.488-2.761,0.664-3.579L266.697,241.638z"/>
<g>
	<path style="fill:#D8DCE5;" d="M175.346,411.473V287.407c0-4.556-3.693-8.249-8.249-8.249s-8.249,3.693-8.249,8.249v124.066
		C163.881,411.473,169.417,411.473,175.346,411.473z"/>
	<path style="fill:#D8DCE5;" d="M351.254,411.473V287.407c0-4.556-3.693-8.249-8.249-8.249s-8.249,3.693-8.249,8.249v124.066
		C340.668,411.473,346.198,411.473,351.254,411.473z"/>
</g>
<g>
	<path style="fill:#E4EAF8;" d="M67.674,366.523c-4.267,0-7.727-3.459-7.727-7.727V242.085c0-1.693,0.556-3.339,1.583-4.686
		l41.291-54.14c2.588-3.393,7.437-4.046,10.83-1.458c3.393,2.588,4.046,7.436,1.458,10.83l-39.708,52.065v114.101
		C75.401,363.064,71.941,366.523,67.674,366.523z"/>
	<path style="fill:#E4EAF8;" d="M444.326,366.523c-4.267,0-7.727-3.459-7.727-7.727V244.695l-39.708-52.065
		c-2.588-3.393-1.935-8.242,1.458-10.83c3.394-2.588,8.241-1.936,10.83,1.458l41.291,54.14c1.027,1.347,1.583,2.993,1.583,4.686
		v116.712C452.053,363.064,448.592,366.523,444.326,366.523z"/>
</g>
<g>
	<circle style="fill:#707487;" cx="121.16" cy="171.63" r="20.53"/>
	<circle style="fill:#707487;" cx="390.84" cy="171.63" r="20.53"/>
</g>
<g>
	<path style="fill:#5B5D6E;" d="M121.313,171.628c0-7.563,4.102-14.154,10.191-17.715c-3.039-1.778-6.564-2.814-10.339-2.814
		c-11.338,0-20.53,9.191-20.53,20.53s9.191,20.53,20.53,20.53c3.775,0,7.3-1.036,10.339-2.814
		C125.414,185.782,121.313,179.192,121.313,171.628z"/>
	<path style="fill:#5B5D6E;" d="M390.984,171.628c0-7.563,4.102-14.154,10.191-17.715c-3.039-1.778-6.564-2.814-10.339-2.814
		c-11.338,0-20.53,9.191-20.53,20.53s9.191,20.53,20.53,20.53c3.775,0,7.3-1.036,10.339-2.814
		C395.086,185.782,390.984,179.192,390.984,171.628z"/>
</g>
<path style="fill:#868B9B;" d="M54.74,402.123v101.513c0,4.619,3.745,8.364,8.364,8.364h385.792c4.619,0,8.363-3.745,8.363-8.364
	V402.123H54.74z"/>
<g>
	<path style="fill:#707487;" d="M75.345,503.636V402.123H54.74v101.513c0,4.619,3.745,8.364,8.364,8.364h20.605
		C79.09,512,75.345,508.255,75.345,503.636z"/>
	<path style="fill:#707487;" d="M465.239,409.335H46.761c-5.018,0-9.086-4.068-9.086-9.086V359.64c0-5.018,4.068-9.086,9.086-9.086
		H465.24c5.018,0,9.086,4.068,9.086,9.086v40.609C474.326,405.267,470.258,409.335,465.239,409.335z"/>
</g>
<path style="fill:#5B5D6E;" d="M464.965,388.73H47.036c-5.17,0-9.361-4.191-9.361-9.361v20.605c0,5.17,4.191,9.361,9.361,9.361
	h417.929c5.17,0,9.361-4.191,9.361-9.361v-20.605C474.325,384.539,470.135,388.73,464.965,388.73z"/>
<g>
</g>
<g>
</g>
<g>
</g>
<g>
</g>
<g>
</g>
<g>
</g>
<g>
</g>
<g>
</g>
<g>
</g>
<g>
</g>
<g>
</g>
<g>
</g>
<g>
</g>
<g>
</g>
<g>
</g>
</svg>
