<?xml version="1.0" encoding="iso-8859-1"?>
<!-- Generator: Adobe Illustrator 19.0.0, SVG Export Plug-In . SVG Version: 6.00 Build 0)  -->
<svg version="1.1" id="Capa_1" xmlns="http://www.w3.org/2000/svg" xmlns:xlink="http://www.w3.org/1999/xlink" x="0px" y="0px"
	 viewBox="0 0 512 512" style="enable-background:new 0 0 512 512;" xml:space="preserve">
<circle style="fill:#FFCF4B;" cx="256" cy="256" r="256"/>
<path style="fill:#6E7789;" d="M459.758,50.057V411.01c-9.404,12.33-19.895,23.792-31.347,34.22
	c-22.298,20.334-48.191,36.77-76.622,48.243c-29.592,11.954-61.921,18.526-95.786,18.526s-66.194-6.572-95.786-18.526
	C131.786,482,105.893,465.564,83.595,445.23c-11.452-10.428-21.943-21.891-31.347-34.22V50.057c0-8.447,6.847-15.294,15.294-15.294
	h376.923C452.911,34.763,459.758,41.61,459.758,50.057z"/>
<path style="fill:#FCFCFC;" d="M428.411,66.11v379.12c-22.298,20.334-48.191,36.77-76.622,48.243
	c-29.592,11.954-61.921,18.526-95.786,18.526s-66.194-6.572-95.786-18.526C131.786,482,105.893,465.564,83.595,445.23V66.11H428.411
	z"/>
<g>
	<path style="fill:#F7B12F;" d="M403.688,0H383.12c-6.439,0-11.659,5.22-11.659,11.659v52.196c0,6.44,5.22,11.659,11.659,11.659
		h20.568c6.44,0,11.659-5.22,11.659-11.659V11.659C415.347,5.22,410.127,0,403.688,0z"/>
	<path style="fill:#F7B12F;" d="M128.88,0h-20.568c-6.439,0-11.659,5.22-11.659,11.659v52.196c0,6.44,5.22,11.659,11.659,11.659
		h20.568c6.44,0,11.659-5.22,11.659-11.659V11.659C140.539,5.22,135.318,0,128.88,0z"/>
</g>
<g>
	<path style="fill:#F44E72;" d="M176.989,116.254c0-3.885,3.574-7.303,9.012-7.303h32.165c20.511,0,36.672,9.634,36.672,35.74v0.777
		c0,26.105-16.782,36.05-38.226,36.05h-15.384v33.564c0,4.973-6.06,7.458-12.121,7.458s-12.121-2.486-12.121-7.458v-98.829H176.989z
		 M201.23,130.085v32.787h15.384c8.702,0,13.985-4.973,13.985-15.539v-1.709c0-10.567-5.283-15.54-13.985-15.54H201.23V130.085z"/>
	<path style="fill:#F44E72;" d="M264.16,186.802v-41.178c0-26.727,16.626-36.672,38.071-36.672s38.226,9.945,38.226,36.672v41.178
		c0,26.726-16.782,36.672-38.226,36.672S264.16,213.528,264.16,186.802z M316.215,145.623c0-10.722-5.283-15.54-13.985-15.54
		s-13.829,4.817-13.829,15.54v41.178c0,10.722,5.127,15.539,13.829,15.539s13.985-4.817,13.985-15.539V145.623z"/>
	<path style="fill:#F44E72;" d="M223.606,314.362c0-18.802-49.259-15.539-49.259-51.9c0-23.309,20.356-32.166,39.779-32.166
		c8.236,0,30.923,1.554,30.923,13.675c0,4.195-2.797,12.741-9.634,12.741c-5.594,0-8.546-5.905-21.289-5.905
		c-11.033,0-15.539,4.507-15.539,9.323c0,15.54,49.259,12.587,49.259,51.744c0,22.376-16.316,34.496-38.847,34.496
		c-20.356,0-37.448-9.945-37.448-20.201c0-5.283,4.661-13.053,10.566-13.053c7.303,0,11.965,11.499,26.416,11.499
		C215.681,324.617,223.606,321.82,223.606,314.362z"/>
</g>
<g>
	<path style="fill:#FFCF4B;" d="M327.094,231.229c5.127,0,7.303,5.594,7.303,10.722c0,5.905-2.642,11.033-7.303,11.033H305.65
		v84.377c0,4.973-6.06,7.458-12.121,7.458s-12.121-2.486-12.121-7.458v-84.377h-21.443c-4.661,0-7.303-5.128-7.303-11.033
		c0-5.128,2.175-10.722,7.303-10.722H327.094z"/>
	<path style="fill:#FFCF4B;" d="M201.23,400.898h23.309c4.661,0,7.303,4.507,7.303,9.479c0,4.195-2.175,9.168-7.303,9.168H201.23
		v26.416h41.644c4.661,0,7.303,4.973,7.303,10.722c0,4.973-2.175,10.411-7.303,10.411h-55.318c-5.284,0-10.567-2.486-10.567-7.458
		v-98.672c0-4.973,5.283-7.458,10.567-7.458h55.318c5.127,0,7.303,5.439,7.303,10.41c0,5.749-2.641,10.722-7.303,10.722H201.23
		V400.898z"/>
</g>
<path style="fill:#51B0E0;" d="M260.742,360.808c0-3.885,2.953-7.303,7.46-7.303h32.165c21.288,0,38.226,7.925,38.226,33.253
	c0,17.404-7.925,27.348-18.802,31.543l18.958,34.342c0.623,0.932,0.777,2.02,0.777,2.797c0,6.06-8.08,12.586-15.228,12.586
	c-3.108,0-6.06-1.242-7.77-4.507l-21.288-41.334h-10.256v37.449c0,4.973-6.06,7.458-12.121,7.458s-12.121-2.486-12.121-7.458
	V360.808z M284.982,374.638v28.903h15.384c8.702,0,13.985-3.574,13.985-14.451c0-10.877-5.283-14.452-13.985-14.452L284.982,374.638
	L284.982,374.638z"/>
<g>
</g>
<g>
</g>
<g>
</g>
<g>
</g>
<g>
</g>
<g>
</g>
<g>
</g>
<g>
</g>
<g>
</g>
<g>
</g>
<g>
</g>
<g>
</g>
<g>
</g>
<g>
</g>
<g>
</g>
</svg>
