<svg id="Capa_1" enable-background="new 0 0 513.274 513.274" height="512" viewBox="0 0 513.274 513.274" width="512" xmlns="http://www.w3.org/2000/svg"><g><g><path d="m285.946 7.501h-35.91l-15.674 12.563h-121.993l-7.043-12.563h-35.91c-28.03 0-50.76 22.72-50.76 50.76v396.75c0 28.034 22.726 50.76 50.76 50.76h216.54c8.587 0 16.676-2.135 23.766-5.902 15.829-8.411 25.434-25.177 25.531-43.102l1.452-266.086v-132.42c.001-28.033-22.725-50.76-50.759-50.76z" fill="#e1f5f8"/><path d="m118.221 480.877c-28.034 0-50.76-22.726-50.76-50.76v-396.749c0-9.45 2.59-18.291 7.086-25.866h-5.131c-28.03 0-50.76 22.72-50.76 50.76v396.75c0 28.034 22.726 50.76 50.76 50.76h216.54c8.587 0 16.676-2.135 23.766-5.902 8.263-4.391 14.809-11.071 19.213-18.992h-210.714z" fill="#d9f2f6"/><g><g id="XMLID_259_"><g><path d="m250.036 7.501-4.09 19.18c-2 9.36-10.26 16.04-19.83 16.04h-96.87c-9.56 0-17.83-6.68-19.82-16.04l-4.1-19.18h144.71z" fill="#a59ca6"/></g></g><path d="m285.355 139.248v-.954c0-13.242-10.735-23.977-23.977-23.977h-164.452c-13.242 0-23.977 10.735-23.977 23.977v114.53c0 13.242 10.735 23.977 23.977 23.977h156.132 13.768c10.233 0 18.529-8.296 18.529-18.529z" fill="#e79098"/><circle cx="93.969" cy="352.514" fill="#b3e5ee" r="20.767"/><circle cx="93.969" cy="438.363" fill="#b3e5ee" r="20.767"/><g><g id="XMLID_262_"><g><path d="m335.406 428.774 1.218-223.089c-.469-.019-.936-.046-1.409-.046-3.486 0-6.952.526-10.312 1.567-1.455.453-2.864.993-4.22 1.613-3.239-10.073-6.848-21.41-9.79-30.721-4.535-14.631-17.873-24.46-33.188-24.46-3.486 0-6.952.526-10.307 1.566-14.626 4.541-24.453 17.877-24.453 33.186 0 3.465.522 6.921 1.564 10.308l28.66 92.296c1.449 4.665-3.589 8.679-7.812 6.224-5.467-3.175-11.688-4.853-17.991-4.853-12.19 0-23.434 6.101-30.069 16.306-3.802 5.836-5.812 12.596-5.812 19.549 0 11.033 4.958 21.284 13.597 28.118l71.75 56.83c11.087 8.782 24.565 14.192 38.574 15.606z" fill="#d9f2f6"/><path d="m277.706 153.64c-3.486 0-6.952.526-10.307 1.566-14.626 4.541-24.453 17.877-24.453 33.186 0 3.465.522 6.921 1.564 10.308l24.222 78.004c9.338-.954 16.623-8.842 16.623-18.431v-103.789c-2.47-.55-5.029-.844-7.649-.844z" fill="#e17983"/><path d="m315.456 240.391c0-8.42 5.44-16.23 13.9-18.86 10.42-3.23 21.49 2.59 24.73 13.01l2.36 7.62c-.6-1.95-.89-3.92-.89-5.86 0-8.43 5.43-16.23 13.9-18.86 10.42-3.24 21.49 2.58 24.72 13l2.78 8.96c-.6-1.95-.89-3.92-.89-5.86 0-8.42 5.43-16.23 13.9-18.86 10.42-3.23 21.49 2.59 24.72 13.01l28.96 93.32c4.89 16.55 6.76 33.85 5.51 51.07l-.31 4.18c-.16 2.18.09 4.38.74 6.47l22.643 72.913c1.332 4.29-.969 8.866-5.207 10.355l-100.762 35.392c-4.464 1.568-9.339-.883-10.742-5.402l-24.881-80.127c-.36-1.15-1.43-1.93-2.62-1.93-.07 0-.15 0-.23.01-14.97 1.28-29.86-3.2-41.64-12.53l-71.75-56.83c-5.17-4.09-7.91-10.18-7.91-16.36 0-3.91 1.1-7.86 3.38-11.36 6.06-9.32 18.35-12.25 27.96-6.67l38.81 22.55c2.26 1.31 4.95-.84 4.17-3.33l-41.97-135.16c-.6-1.95-.89-3.92-.89-5.86 0-8.42 5.43-16.23 13.9-18.86 10.42-3.23 21.49 2.59 24.72 13.01-.001-.001 18.889 59.789 18.889 57.849z" fill="#ffe0d1"/></g></g></g><g><path d="m488.194 442.653-86.581 34.054c-4.367 1.718-9.303-.478-10.879-4.839l-27.949-77.321c-.404-1.11-1.498-1.828-2.678-1.779-.069.003-.149.006-.228.019-14.804 1.869-29.762-1.897-41.832-10.534l-73.513-52.607c-5.297-3.786-8.263-9.627-8.515-15.67-.046-1.108-.007-2.237.132-3.347-2.451 1.557-4.605 3.646-6.286 6.232-2.28 3.5-3.38 7.45-3.38 11.36 0 6.18 2.74 12.27 7.91 16.36l71.75 56.83c11.78 9.33 26.67 13.81 41.64 12.53.08-.01.16-.01.23-.01 1.19 0 2.26.78 2.62 1.93l24.881 80.127c1.403 4.519 6.277 6.97 10.742 5.402l100.762-35.392c4.239-1.489 6.54-6.064 5.208-10.355z" fill="#ffd1c2"/></g></g><path d="m211.117 206.684 8.373 9.705c8.755 10.148 13.572 23.104 13.572 36.506v23.905h-107.821v-23.905c0-13.402 4.817-26.359 13.572-36.506l8.373-9.705 12.91-14.178h40.82z" fill="#f9f7f7"/><path d="m219.674 216.601-8.556-9.917-8.005-11.126-2.196-3.052h-19.278-21.542l-12.91 14.178-8.45 9.794c-8.706 10.09-13.495 22.974-13.495 36.301v24.022h19.146v-20.853c0-7.163 1.377-14.199 3.996-20.746 1.611-4.028 6.217-6.008 10.225-4.348 6.335 2.624 13.27 4.079 20.544 4.079 16.121 0 30.607-7.103 40.521-18.332z" fill="#f2eae7"/><circle cx="179.152" cy="180.872" fill="#f9f7f7" r="39.061"/><path d="m161.129 179.84c0-17.25 11.16-31.895 26.67-37.07-2.791-.633-5.665-.96-8.647-.96-21.573 0-39.061 17.488-39.061 39.061s17.488 39.061 39.061 39.061c4.323 0 8.478-.701 12.365-1.998-17.397-3.945-30.388-19.503-30.388-38.094z" fill="#f2eae7"/></g><g><path d="m337.011 460.042c-4.014-1.003-8.09 1.445-9.09 5.465-4.805 19.293-22.063 32.768-41.97 32.768h-216.537c-23.852 0-43.257-19.405-43.257-43.257v-396.761c.001-23.852 19.406-43.257 43.257-43.257h29.843l2.83 13.25c2.72 12.731 14.143 21.972 27.16 21.972h44.42c4.143 0 7.5-3.357 7.5-7.5s-3.357-7.5-7.5-7.5h-44.42c-5.987 0-11.24-4.25-12.49-10.104l-2.16-10.118h126.172l-2.161 10.117c-1.25 5.855-6.502 10.104-12.489 10.104h-20.489c-4.143 0-7.5 3.357-7.5 7.5s3.357 7.5 7.5 7.5h20.488c13.019 0 24.44-9.24 27.159-21.972l2.83-13.25h29.844c23.852 0 43.256 19.405 43.256 43.257v132.429c0 4.143 3.357 7.5 7.5 7.5s7.5-3.357 7.5-7.5v-132.428c0-32.123-26.133-58.257-58.255-58.257h-216.538c-32.123 0-58.256 26.134-58.256 58.257v396.761c0 32.123 26.134 58.257 58.257 58.257h216.537c26.809 0 50.053-18.152 56.524-44.143 1.001-4.02-1.445-8.09-5.465-9.09z"/><path d="m285.356 146.748c4.143 0 7.5-3.357 7.5-7.5v-.955c0-17.356-14.121-31.477-31.478-31.477h-164.452c-17.356 0-31.478 14.12-31.478 31.477v57.266c0 4.143 3.357 7.5 7.5 7.5s7.5-3.357 7.5-7.5v-57.266c0-9.085 7.392-16.477 16.478-16.477h164.452c9.086 0 16.478 7.392 16.478 16.477v.955c0 4.143 3.357 7.5 7.5 7.5z"/><path d="m93.969 324.247c-15.586 0-28.267 12.681-28.267 28.268 0 15.586 12.681 28.267 28.267 28.267 15.587 0 28.268-12.681 28.268-28.267 0-15.587-12.681-28.268-28.268-28.268zm0 41.534c-7.315 0-13.267-5.951-13.267-13.267s5.951-13.268 13.267-13.268 13.268 5.952 13.268 13.268-5.952 13.267-13.268 13.267z"/><path d="m93.969 410.096c-15.586 0-28.267 12.681-28.267 28.268 0 15.586 12.681 28.267 28.267 28.267 15.587 0 28.268-12.681 28.268-28.267 0-15.588-12.681-28.268-28.268-28.268zm0 41.534c-7.315 0-13.267-5.951-13.267-13.267s5.951-13.268 13.267-13.268 13.268 5.952 13.268 13.268-5.952 13.267-13.268 13.267z"/><path d="m197.081 324.247h-49.894c-4.143 0-7.5 3.357-7.5 7.5s3.357 7.5 7.5 7.5h49.894c4.143 0 7.5-3.357 7.5-7.5s-3.358-7.5-7.5-7.5z"/><path d="m223.216 365.781h-76.029c-4.143 0-7.5 3.357-7.5 7.5s3.357 7.5 7.5 7.5h76.029c4.143 0 7.5-3.357 7.5-7.5s-3.357-7.5-7.5-7.5z"/><path d="m273.969 410.096h-126.782c-4.143 0-7.5 3.357-7.5 7.5s3.357 7.5 7.5 7.5h126.782c4.143 0 7.5-3.357 7.5-7.5s-3.357-7.5-7.5-7.5z"/><path d="m273.969 451.63h-126.782c-4.143 0-7.5 3.357-7.5 7.5s3.357 7.5 7.5 7.5h126.782c4.143 0 7.5-3.357 7.5-7.5s-3.357-7.5-7.5-7.5z"/><path d="m225.169 211.49-5.965-6.913c4.128-6.949 6.509-15.052 6.509-23.705 0-25.674-20.888-46.562-46.562-46.562s-46.561 20.888-46.561 46.562c0 8.652 2.38 16.756 6.508 23.705l-5.965 6.913c-9.926 11.505-15.393 26.21-15.393 41.405v16.405h-20.814c-9.086 0-16.478-7.392-16.478-16.478v-25.303c0-4.143-3.357-7.5-7.5-7.5s-7.5 3.357-7.5 7.5v25.303c0 17.356 14.121 31.478 31.478 31.478h156.132c4.143 0 7.5-3.357 7.5-7.5s-3.357-7.5-7.5-7.5h-12.495v-16.405c0-15.194-5.467-29.899-15.394-41.405zm-46.017-62.179c17.403 0 31.562 14.158 31.562 31.562 0 17.402-14.158 31.561-31.562 31.561-17.402 0-31.561-14.158-31.561-31.561 0-17.404 14.158-31.562 31.561-31.562zm-46.41 103.585c0-11.6 4.173-22.824 11.75-31.606l4.387-5.085c8.147 6.99 18.721 11.229 30.273 11.229s22.126-4.238 30.273-11.229l4.387 5.085c7.578 8.783 11.751 20.008 11.751 31.606v16.405h-92.821z"/><path d="m357.796 413.643c-1.415-4.559-5.894-7.575-10.652-7.17-13.107 1.117-26.02-2.768-36.339-10.94l-71.749-56.827c-5.438-4.308-6.688-11.941-2.905-17.756 3.884-5.974 11.751-7.846 17.909-4.27l38.809 22.542c3.721 2.162 8.3 1.825 11.664-.857 3.365-2.682 4.714-7.069 3.438-11.176l-18.843-60.686c-1.229-3.956-5.43-6.166-9.387-4.939-3.956 1.229-6.167 5.432-4.939 9.387l15.316 49.326-28.523-16.567c-13.073-7.594-29.773-3.614-38.018 9.062-8.029 12.344-5.379 28.549 6.166 37.692l71.75 56.827c12.315 9.755 27.501 14.762 43.079 14.346l26.346 84.847c.999 3.215 3.962 5.277 7.161 5.277.736 0 1.485-.109 2.226-.339 3.956-1.229 6.167-5.432 4.939-9.388z"/><path d="m501.778 461.104-25.027-80.602c-.373-1.2-.516-2.442-.424-3.693l.305-4.18c1.323-18.163-.627-36.246-5.797-53.745-.01-.032-.02-.065-.029-.098l-28.953-93.322c-4.458-14.352-19.759-22.405-34.11-17.944-5.515 1.712-10.101 5.028-13.402 9.275-6.931-6.738-17.244-9.587-27.109-6.521-5.755 1.787-10.497 5.318-13.825 9.834-6.909-6.171-16.796-8.68-26.27-5.737-4.207 1.306-7.867 3.55-10.834 6.423l-12.569-40.478c-4.456-14.351-19.76-22.406-34.11-17.945-14.351 4.456-22.4 19.758-17.944 34.108l13.645 43.943c1.229 3.956 5.431 6.166 9.387 4.939 3.956-1.229 6.167-5.432 4.939-9.387l-13.645-43.944c-2.004-6.452 1.615-13.332 8.066-15.335 6.447-2.008 13.332 1.616 15.336 8.068l31.92 102.794c1.228 3.954 5.425 6.166 9.387 4.938 3.955-1.229 6.166-5.432 4.938-9.388l-12.136-39.081c-2.001-6.452 1.619-13.329 8.069-15.333 6.448-2.003 13.332 1.616 15.335 8.068l12.134 39.079c.999 3.215 3.962 5.277 7.161 5.277.736 0 1.485-.109 2.227-.339 3.955-1.229 6.166-5.432 4.938-9.387l-9.77-31.463c-2.001-6.452 1.619-13.329 8.069-15.332 6.448-2.006 13.332 1.615 15.335 8.067l9.769 31.46c.999 3.216 3.962 5.278 7.161 5.278.736 0 1.485-.109 2.226-.339 3.956-1.229 6.167-5.432 4.939-9.387l-6.989-22.51c-1.996-6.45 1.623-13.323 8.071-15.324 3.125-.972 6.442-.665 9.339.857 2.896 1.523 5.026 4.085 5.996 7.209l28.938 93.271c4.646 15.746 6.397 32.016 5.207 48.355l-.305 4.179c-.228 3.128.128 6.234 1.059 9.232l25.027 80.602c.999 3.216 3.962 5.278 7.161 5.278.736 0 1.485-.109 2.226-.339 3.954-1.222 6.165-5.425 4.938-9.381z"/></g></g></svg>